<svg xmlns="http://www.w3.org/2000/svg" viewBox="0 0 180 180"><rect width="180" height="180" rx="38" fill="#e8f0f2"/><path d="M0 126c35-25 58-18 83-35 31-21 52-22 97-2v91H0z" fill="#c9d3c2"/><path d="M69 180c7-36 31-46 49-60 17-13 23-27 25-47" fill="none" stroke="#fff5df" stroke-width="15"/><rect x="42" y="38" width="91" height="86" rx="12" fill="#fffaf0" stroke="#a88772" stroke-width="2"/><path d="M42 60h91M59 31v16M116 31v16" stroke="#a88772" stroke-width="4" stroke-linecap="round"/><g stroke="#d7c4ad" stroke-width="1"><path d="M58 72h59M58 86h59M58 100h59M72 65v47M87 65v47M102 65v47"/></g><path d="M87 84c-7-9-19 1 0 15 19-14 7-24 0-15z" fill="#c99087"/><g fill="#d7aa5f"><path d="M142 27l3 8 8 3-8 3-3 8-3-8-8-3 8-3z"/><circle cx="31" cy="77" r="3"/></g><g fill="#8fa68e"><path d="M28 135c5-18 15-28 30-31-1 16-10 27-30 31z"/><path d="M143 128c8-13 17-19 28-17-2 13-11 21-28 25z"/></g></svg>